# MagicaVoxel @ Ephtracy

# group
o 

# material
mtllib wall.mtl
usemtl palette

# normals
vn -1 0 0
vn 1 0 0
vn 0 0 1
vn 0 0 -1
vn 0 -1 0
vn 0 1 0

# texcoords
vt 0.00195313 0.5
vt 0.861328 0.5
vt 0.865234 0.5
vt 0.869141 0.5
vt 0.958984 0.5

# verts
v 1.5 0 1.6
v 1.5 0 1.5
v 1.5 0 1.4
v 1.5 0 0.6
v 1.5 0 0.5
v 1.5 0 -0.3
v 1.5 0 -0.4
v 1.5 0 -1.2
v 1.5 0 -1.3
v 1.5 0 -1.6
v 1.5 0.3 1.6
v 1.5 0.3 1.5
v 1.5 0.3 1.4
v 1.5 0.3 0.6
v 1.5 0.3 0.5
v 1.5 0.3 -0.3
v 1.5 0.3 -0.4
v 1.5 0.3 -1.2
v 1.5 0.3 -1.3
v 1.5 0.3 -1.6
v 1.5 0.4 1.6
v 1.5 0.4 1.1
v 1.5 0.4 1
v 1.5 0.4 0.2
v 1.5 0.4 0.1
v 1.5 0.4 -0.7
v 1.5 0.4 -0.8
v 1.5 0.4 -1.6
v 1.5 0.7 1.6
v 1.5 0.7 1.1
v 1.5 0.7 1
v 1.5 0.7 0.2
v 1.5 0.7 0.1
v 1.5 0.7 -0.7
v 1.5 0.7 -0.8
v 1.5 0.7 -1.6
v 1.5 0.8 1.6
v 1.5 0.8 1.3
v 1.5 0.8 1.2
v 1.5 0.8 0.4
v 1.5 0.8 0.3
v 1.5 0.8 -0.5
v 1.5 0.8 -0.6
v 1.5 0.8 -1.4
v 1.5 0.8 -1.5
v 1.5 0.8 -1.6
v 1.5 1.1 1.6
v 1.5 1.1 1.3
v 1.5 1.1 1.2
v 1.5 1.1 0.4
v 1.5 1.1 0.3
v 1.5 1.1 -0.5
v 1.5 1.1 -0.6
v 1.5 1.1 -1.4
v 1.5 1.1 -1.5
v 1.5 1.1 -1.6
v 1.5 1.2 1.6
v 1.5 1.2 1.1
v 1.5 1.2 1
v 1.5 1.2 0.2
v 1.5 1.2 0.1
v 1.5 1.2 -0.7
v 1.5 1.2 -0.8
v 1.5 1.2 -1.6
v 1.5 1.5 1.6
v 1.5 1.5 1.1
v 1.5 1.5 1
v 1.5 1.5 0.2
v 1.5 1.5 0.1
v 1.5 1.5 -0.7
v 1.5 1.5 -0.8
v 1.5 1.5 -1.6
v 1.5 1.6 1.6
v 1.5 1.6 1.3
v 1.5 1.6 1.2
v 1.5 1.6 0.4
v 1.5 1.6 0.3
v 1.5 1.6 -0.5
v 1.5 1.6 -0.6
v 1.5 1.6 -1.4
v 1.5 1.6 -1.5
v 1.5 1.6 -1.6
v 1.5 1.9 1.6
v 1.5 1.9 1.3
v 1.5 1.9 1.2
v 1.5 1.9 0.4
v 1.5 1.9 0.3
v 1.5 1.9 -0.5
v 1.5 1.9 -0.6
v 1.5 1.9 -1.4
v 1.5 1.9 -1.5
v 1.5 1.9 -1.6
v 1.5 2 1.6
v 1.5 2 1.1
v 1.5 2 1
v 1.5 2 0.2
v 1.5 2 0.1
v 1.5 2 -0.7
v 1.5 2 -0.8
v 1.5 2 -1.6
v 1.5 2.3 1.6
v 1.5 2.3 1.1
v 1.5 2.3 1
v 1.5 2.3 0.2
v 1.5 2.3 0.1
v 1.5 2.3 -0.7
v 1.5 2.3 -0.8
v 1.5 2.3 -1.6
v 2 0 1.6
v 2 0 1.5
v 2 0 1.4
v 2 0 0.7
v 2 0 0.6
v 2 0 -0.2
v 2 0 -0.3
v 2 0 -1.1
v 2 0 -1.2
v 2 0 -1.6
v 2 0.3 1.6
v 2 0.3 1.5
v 2 0.3 1.4
v 2 0.3 0.7
v 2 0.3 0.6
v 2 0.3 -0.2
v 2 0.3 -0.3
v 2 0.3 -1.1
v 2 0.3 -1.2
v 2 0.3 -1.6
v 2 0.4 1.6
v 2 0.4 1.1
v 2 0.4 1
v 2 0.4 0.2
v 2 0.4 0.1
v 2 0.4 -0.7
v 2 0.4 -0.8
v 2 0.4 -1.6
v 2 0.7 1.6
v 2 0.7 1.1
v 2 0.7 1
v 2 0.7 0.2
v 2 0.7 0.1
v 2 0.7 -0.7
v 2 0.7 -0.8
v 2 0.7 -1.6
v 2 0.8 1.6
v 2 0.8 1.3
v 2 0.8 1.2
v 2 0.8 0.4
v 2 0.8 0.3
v 2 0.8 -0.5
v 2 0.8 -0.6
v 2 0.8 -1.4
v 2 0.8 -1.5
v 2 0.8 -1.6
v 2 1.1 1.6
v 2 1.1 1.3
v 2 1.1 1.2
v 2 1.1 0.4
v 2 1.1 0.3
v 2 1.1 -0.5
v 2 1.1 -0.6
v 2 1.1 -1.4
v 2 1.1 -1.5
v 2 1.1 -1.6
v 2 1.2 1.6
v 2 1.2 1.1
v 2 1.2 1
v 2 1.2 0.2
v 2 1.2 0.1
v 2 1.2 -0.7
v 2 1.2 -0.8
v 2 1.2 -1.6
v 2 1.5 1.6
v 2 1.5 1.1
v 2 1.5 1
v 2 1.5 0.2
v 2 1.5 0.1
v 2 1.5 -0.7
v 2 1.5 -0.8
v 2 1.5 -1.6
v 2 1.6 1.6
v 2 1.6 1.3
v 2 1.6 1.2
v 2 1.6 0.4
v 2 1.6 0.3
v 2 1.6 -0.5
v 2 1.6 -0.6
v 2 1.6 -1.4
v 2 1.6 -1.5
v 2 1.6 -1.6
v 2 1.9 1.6
v 2 1.9 1.3
v 2 1.9 1.2
v 2 1.9 0.4
v 2 1.9 0.3
v 2 1.9 -0.5
v 2 1.9 -0.6
v 2 1.9 -1.4
v 2 1.9 -1.5
v 2 1.9 -1.6
v 2 2 1.6
v 2 2 1.1
v 2 2 1
v 2 2 0.2
v 2 2 0.1
v 2 2 -0.7
v 2 2 -0.8
v 2 2 -1.6
v 2 2.3 1.6
v 2 2.3 1.1
v 2 2.3 1
v 2 2.3 0.2
v 2 2.3 0.1
v 2 2.3 -0.7
v 2 2.3 -0.8
v 2 2.3 -1.6
v 1.5 0 1.6
v 1.5 0.3 1.6
v 1.5 0.4 1.6
v 1.5 0.7 1.6
v 1.5 0.8 1.6
v 1.5 1.1 1.6
v 1.5 1.2 1.6
v 1.5 1.5 1.6
v 1.5 1.6 1.6
v 1.5 1.9 1.6
v 1.5 2 1.6
v 1.5 2.3 1.6
v 2 0 1.6
v 2 0.3 1.6
v 2 0.4 1.6
v 2 0.7 1.6
v 2 0.8 1.6
v 2 1.1 1.6
v 2 1.2 1.6
v 2 1.5 1.6
v 2 1.6 1.6
v 2 1.9 1.6
v 2 2 1.6
v 2 2.3 1.6
v 1.5 0 -1.6
v 1.5 0.3 -1.6
v 1.5 0.4 -1.6
v 1.5 0.7 -1.6
v 1.5 0.8 -1.6
v 1.5 1.1 -1.6
v 1.5 1.2 -1.6
v 1.5 1.5 -1.6
v 1.5 1.6 -1.6
v 1.5 1.9 -1.6
v 1.5 2 -1.6
v 1.5 2.3 -1.6
v 2 0 -1.6
v 2 0.3 -1.6
v 2 0.4 -1.6
v 2 0.7 -1.6
v 2 0.8 -1.6
v 2 1.1 -1.6
v 2 1.2 -1.6
v 2 1.5 -1.6
v 2 1.6 -1.6
v 2 1.9 -1.6
v 2 2 -1.6
v 2 2.3 -1.6
v 1.5 0 1.6
v 2 0 1.6
v 1.5 0 1.5
v 1.6 0 1.5
v 1.9 0 1.5
v 2 0 1.5
v 1.5 0 1.4
v 1.6 0 1.4
v 1.9 0 1.4
v 2 0 1.4
v 1.9 0 0.7
v 2 0 0.7
v 1.5 0 0.6
v 1.6 0 0.6
v 1.9 0 0.6
v 2 0 0.6
v 1.5 0 0.5
v 1.6 0 0.5
v 1.9 0 -0.2
v 2 0 -0.2
v 1.5 0 -0.3
v 1.6 0 -0.3
v 1.9 0 -0.3
v 2 0 -0.3
v 1.5 0 -0.4
v 1.6 0 -0.4
v 1.9 0 -1.1
v 2 0 -1.1
v 1.5 0 -1.2
v 1.6 0 -1.2
v 1.9 0 -1.2
v 2 0 -1.2
v 1.5 0 -1.3
v 1.6 0 -1.3
v 1.5 0 -1.6
v 2 0 -1.6
v 1.5 2.3 1.6
v 2 2.3 1.6
v 1.5 2.3 1.1
v 2 2.3 1.1
v 1.5 2.3 1
v 2 2.3 1
v 1.5 2.3 0.2
v 2 2.3 0.2
v 1.5 2.3 0.1
v 2 2.3 0.1
v 1.5 2.3 -0.7
v 2 2.3 -0.7
v 1.5 2.3 -0.8
v 2 2.3 -0.8
v 1.5 2.3 -1.6
v 2 2.3 -1.6

# faces
f 11/4/1 2/4/1 1/4/1
f 12/5/1 3/5/1 2/5/1
f 12/4/1 2/4/1 11/4/1
f 13/3/1 4/3/1 3/3/1
f 13/5/1 3/5/1 12/5/1
f 14/5/1 5/5/1 4/5/1
f 14/3/1 4/3/1 13/3/1
f 15/4/1 6/4/1 5/4/1
f 15/5/1 5/5/1 14/5/1
f 16/5/1 7/5/1 6/5/1
f 16/4/1 6/4/1 15/4/1
f 17/2/1 8/2/1 7/2/1
f 17/5/1 7/5/1 16/5/1
f 18/5/1 9/5/1 8/5/1
f 18/2/1 8/2/1 17/2/1
f 19/3/1 10/3/1 9/3/1
f 19/5/1 9/5/1 18/5/1
f 20/3/1 10/3/1 19/3/1
f 21/5/1 18/5/1 17/5/1
f 21/5/1 12/5/1 11/5/1
f 21/5/1 20/5/1 19/5/1
f 21/5/1 19/5/1 18/5/1
f 21/5/1 17/5/1 16/5/1
f 21/5/1 16/5/1 15/5/1
f 21/5/1 15/5/1 14/5/1
f 21/5/1 14/5/1 13/5/1
f 21/5/1 13/5/1 12/5/1
f 22/5/1 20/5/1 21/5/1
f 23/5/1 20/5/1 22/5/1
f 24/5/1 20/5/1 23/5/1
f 25/5/1 20/5/1 24/5/1
f 26/5/1 20/5/1 25/5/1
f 27/5/1 20/5/1 26/5/1
f 28/5/1 20/5/1 27/5/1
f 29/3/1 22/3/1 21/3/1
f 30/5/1 23/5/1 22/5/1
f 30/3/1 22/3/1 29/3/1
f 31/3/1 24/3/1 23/3/1
f 31/5/1 23/5/1 30/5/1
f 32/5/1 25/5/1 24/5/1
f 32/3/1 24/3/1 31/3/1
f 33/3/1 26/3/1 25/3/1
f 33/5/1 25/5/1 32/5/1
f 34/5/1 27/5/1 26/5/1
f 34/3/1 26/3/1 33/3/1
f 35/4/1 28/4/1 27/4/1
f 35/5/1 27/5/1 34/5/1
f 36/4/1 28/4/1 35/4/1
f 37/5/1 30/5/1 29/5/1
f 37/5/1 31/5/1 30/5/1
f 37/5/1 36/5/1 35/5/1
f 37/5/1 35/5/1 34/5/1
f 37/5/1 34/5/1 33/5/1
f 37/5/1 33/5/1 32/5/1
f 37/5/1 32/5/1 31/5/1
f 38/5/1 36/5/1 37/5/1
f 39/5/1 36/5/1 38/5/1
f 40/5/1 36/5/1 39/5/1
f 41/5/1 36/5/1 40/5/1
f 42/5/1 36/5/1 41/5/1
f 43/5/1 36/5/1 42/5/1
f 44/5/1 36/5/1 43/5/1
f 45/5/1 36/5/1 44/5/1
f 46/5/1 36/5/1 45/5/1
f 47/3/1 38/3/1 37/3/1
f 48/5/1 39/5/1 38/5/1
f 48/3/1 38/3/1 47/3/1
f 49/2/1 40/2/1 39/2/1
f 49/5/1 39/5/1 48/5/1
f 50/5/1 41/5/1 40/5/1
f 50/2/1 40/2/1 49/2/1
f 51/3/1 42/3/1 41/3/1
f 51/5/1 41/5/1 50/5/1
f 52/5/1 43/5/1 42/5/1
f 52/3/1 42/3/1 51/3/1
f 53/3/1 44/3/1 43/3/1
f 53/5/1 43/5/1 52/5/1
f 54/5/1 45/5/1 44/5/1
f 54/3/1 44/3/1 53/3/1
f 55/3/1 46/3/1 45/3/1
f 55/5/1 45/5/1 54/5/1
f 56/3/1 46/3/1 55/3/1
f 57/5/1 48/5/1 47/5/1
f 57/5/1 49/5/1 48/5/1
f 57/5/1 56/5/1 55/5/1
f 57/5/1 55/5/1 54/5/1
f 57/5/1 54/5/1 53/5/1
f 57/5/1 53/5/1 52/5/1
f 57/5/1 52/5/1 51/5/1
f 57/5/1 51/5/1 50/5/1
f 57/5/1 50/5/1 49/5/1
f 58/5/1 56/5/1 57/5/1
f 59/5/1 56/5/1 58/5/1
f 60/5/1 56/5/1 59/5/1
f 61/5/1 56/5/1 60/5/1
f 62/5/1 56/5/1 61/5/1
f 63/5/1 56/5/1 62/5/1
f 64/5/1 56/5/1 63/5/1
f 65/3/1 58/3/1 57/3/1
f 66/5/1 59/5/1 58/5/1
f 66/3/1 58/3/1 65/3/1
f 67/3/1 60/3/1 59/3/1
f 67/5/1 59/5/1 66/5/1
f 68/5/1 61/5/1 60/5/1
f 68/3/1 60/3/1 67/3/1
f 69/4/1 62/4/1 61/4/1
f 69/5/1 61/5/1 68/5/1
f 70/5/1 63/5/1 62/5/1
f 70/4/1 62/4/1 69/4/1
f 71/3/1 64/3/1 63/3/1
f 71/5/1 63/5/1 70/5/1
f 72/3/1 64/3/1 71/3/1
f 73/5/1 66/5/1 65/5/1
f 73/5/1 67/5/1 66/5/1
f 73/5/1 72/5/1 71/5/1
f 73/5/1 71/5/1 70/5/1
f 73/5/1 70/5/1 69/5/1
f 73/5/1 69/5/1 68/5/1
f 73/5/1 68/5/1 67/5/1
f 74/5/1 72/5/1 73/5/1
f 75/5/1 72/5/1 74/5/1
f 76/5/1 72/5/1 75/5/1
f 77/5/1 72/5/1 76/5/1
f 78/5/1 72/5/1 77/5/1
f 79/5/1 72/5/1 78/5/1
f 80/5/1 72/5/1 79/5/1
f 81/5/1 72/5/1 80/5/1
f 82/5/1 72/5/1 81/5/1
f 83/3/1 74/3/1 73/3/1
f 84/5/1 75/5/1 74/5/1
f 84/3/1 74/3/1 83/3/1
f 85/3/1 76/3/1 75/3/1
f 85/5/1 75/5/1 84/5/1
f 86/5/1 77/5/1 76/5/1
f 86/3/1 76/3/1 85/3/1
f 87/3/1 78/3/1 77/3/1
f 87/5/1 77/5/1 86/5/1
f 88/5/1 79/5/1 78/5/1
f 88/3/1 78/3/1 87/3/1
f 89/2/1 80/2/1 79/2/1
f 89/5/1 79/5/1 88/5/1
f 90/5/1 81/5/1 80/5/1
f 90/2/1 80/2/1 89/2/1
f 91/3/1 82/3/1 81/3/1
f 91/5/1 81/5/1 90/5/1
f 92/3/1 82/3/1 91/3/1
f 93/5/1 84/5/1 83/5/1
f 93/5/1 85/5/1 84/5/1
f 93/5/1 92/5/1 91/5/1
f 93/5/1 91/5/1 90/5/1
f 93/5/1 90/5/1 89/5/1
f 93/5/1 89/5/1 88/5/1
f 93/5/1 88/5/1 87/5/1
f 93/5/1 87/5/1 86/5/1
f 93/5/1 86/5/1 85/5/1
f 94/5/1 92/5/1 93/5/1
f 95/5/1 92/5/1 94/5/1
f 96/5/1 92/5/1 95/5/1
f 97/5/1 92/5/1 96/5/1
f 98/5/1 92/5/1 97/5/1
f 99/5/1 92/5/1 98/5/1
f 100/5/1 92/5/1 99/5/1
f 101/2/1 94/2/1 93/2/1
f 102/5/1 95/5/1 94/5/1
f 102/2/1 94/2/1 101/2/1
f 103/4/1 96/4/1 95/4/1
f 103/5/1 95/5/1 102/5/1
f 104/5/1 97/5/1 96/5/1
f 104/4/1 96/4/1 103/4/1
f 105/3/1 98/3/1 97/3/1
f 105/5/1 97/5/1 104/5/1
f 106/5/1 99/5/1 98/5/1
f 106/3/1 98/3/1 105/3/1
f 107/3/1 100/3/1 99/3/1
f 107/5/1 99/5/1 106/5/1
f 108/3/1 100/3/1 107/3/1
f 109/4/2 110/4/2 119/4/2
f 110/5/2 111/5/2 120/5/2
f 119/4/2 110/4/2 120/4/2
f 111/3/2 112/3/2 121/3/2
f 120/5/2 111/5/2 121/5/2
f 112/5/2 113/5/2 122/5/2
f 121/3/2 112/3/2 122/3/2
f 113/4/2 114/4/2 123/4/2
f 122/5/2 113/5/2 123/5/2
f 114/5/2 115/5/2 124/5/2
f 123/4/2 114/4/2 124/4/2
f 115/2/2 116/2/2 125/2/2
f 124/5/2 115/5/2 125/5/2
f 116/5/2 117/5/2 126/5/2
f 125/2/2 116/2/2 126/2/2
f 117/3/2 118/3/2 127/3/2
f 126/5/2 117/5/2 127/5/2
f 127/3/2 118/3/2 128/3/2
f 125/5/2 126/5/2 129/5/2
f 119/5/2 120/5/2 129/5/2
f 127/5/2 128/5/2 129/5/2
f 126/5/2 127/5/2 129/5/2
f 124/5/2 125/5/2 129/5/2
f 123/5/2 124/5/2 129/5/2
f 122/5/2 123/5/2 129/5/2
f 121/5/2 122/5/2 129/5/2
f 120/5/2 121/5/2 129/5/2
f 129/5/2 128/5/2 130/5/2
f 130/5/2 128/5/2 131/5/2
f 131/5/2 128/5/2 132/5/2
f 132/5/2 128/5/2 133/5/2
f 133/5/2 128/5/2 134/5/2
f 134/5/2 128/5/2 135/5/2
f 135/5/2 128/5/2 136/5/2
f 129/3/2 130/3/2 137/3/2
f 130/5/2 131/5/2 138/5/2
f 137/3/2 130/3/2 138/3/2
f 131/3/2 132/3/2 139/3/2
f 138/5/2 131/5/2 139/5/2
f 132/5/2 133/5/2 140/5/2
f 139/3/2 132/3/2 140/3/2
f 133/3/2 134/3/2 141/3/2
f 140/5/2 133/5/2 141/5/2
f 134/5/2 135/5/2 142/5/2
f 141/3/2 134/3/2 142/3/2
f 135/4/2 136/4/2 143/4/2
f 142/5/2 135/5/2 143/5/2
f 143/4/2 136/4/2 144/4/2
f 137/5/2 138/5/2 145/5/2
f 138/5/2 139/5/2 145/5/2
f 143/5/2 144/5/2 145/5/2
f 142/5/2 143/5/2 145/5/2
f 141/5/2 142/5/2 145/5/2
f 140/5/2 141/5/2 145/5/2
f 139/5/2 140/5/2 145/5/2
f 145/5/2 144/5/2 146/5/2
f 146/5/2 144/5/2 147/5/2
f 147/5/2 144/5/2 148/5/2
f 148/5/2 144/5/2 149/5/2
f 149/5/2 144/5/2 150/5/2
f 150/5/2 144/5/2 151/5/2
f 151/5/2 144/5/2 152/5/2
f 152/5/2 144/5/2 153/5/2
f 153/5/2 144/5/2 154/5/2
f 145/3/2 146/3/2 155/3/2
f 146/5/2 147/5/2 156/5/2
f 155/3/2 146/3/2 156/3/2
f 147/2/2 148/2/2 157/2/2
f 156/5/2 147/5/2 157/5/2
f 148/5/2 149/5/2 158/5/2
f 157/2/2 148/2/2 158/2/2
f 149/3/2 150/3/2 159/3/2
f 158/5/2 149/5/2 159/5/2
f 150/5/2 151/5/2 160/5/2
f 159/3/2 150/3/2 160/3/2
f 151/3/2 152/3/2 161/3/2
f 160/5/2 151/5/2 161/5/2
f 152/5/2 153/5/2 162/5/2
f 161/3/2 152/3/2 162/3/2
f 153/3/2 154/3/2 163/3/2
f 162/5/2 153/5/2 163/5/2
f 163/3/2 154/3/2 164/3/2
f 155/5/2 156/5/2 165/5/2
f 156/5/2 157/5/2 165/5/2
f 163/5/2 164/5/2 165/5/2
f 162/5/2 163/5/2 165/5/2
f 161/5/2 162/5/2 165/5/2
f 160/5/2 161/5/2 165/5/2
f 159/5/2 160/5/2 165/5/2
f 158/5/2 159/5/2 165/5/2
f 157/5/2 158/5/2 165/5/2
f 165/5/2 164/5/2 166/5/2
f 166/5/2 164/5/2 167/5/2
f 167/5/2 164/5/2 168/5/2
f 168/5/2 164/5/2 169/5/2
f 169/5/2 164/5/2 170/5/2
f 170/5/2 164/5/2 171/5/2
f 171/5/2 164/5/2 172/5/2
f 165/3/2 166/3/2 173/3/2
f 166/5/2 167/5/2 174/5/2
f 173/3/2 166/3/2 174/3/2
f 167/3/2 168/3/2 175/3/2
f 174/5/2 167/5/2 175/5/2
f 168/5/2 169/5/2 176/5/2
f 175/3/2 168/3/2 176/3/2
f 169/4/2 170/4/2 177/4/2
f 176/5/2 169/5/2 177/5/2
f 170/5/2 171/5/2 178/5/2
f 177/4/2 170/4/2 178/4/2
f 171/3/2 172/3/2 179/3/2
f 178/5/2 171/5/2 179/5/2
f 179/3/2 172/3/2 180/3/2
f 173/5/2 174/5/2 181/5/2
f 174/5/2 175/5/2 181/5/2
f 179/5/2 180/5/2 181/5/2
f 178/5/2 179/5/2 181/5/2
f 177/5/2 178/5/2 181/5/2
f 176/5/2 177/5/2 181/5/2
f 175/5/2 176/5/2 181/5/2
f 181/5/2 180/5/2 182/5/2
f 182/5/2 180/5/2 183/5/2
f 183/5/2 180/5/2 184/5/2
f 184/5/2 180/5/2 185/5/2
f 185/5/2 180/5/2 186/5/2
f 186/5/2 180/5/2 187/5/2
f 187/5/2 180/5/2 188/5/2
f 188/5/2 180/5/2 189/5/2
f 189/5/2 180/5/2 190/5/2
f 181/3/2 182/3/2 191/3/2
f 182/5/2 183/5/2 192/5/2
f 191/3/2 182/3/2 192/3/2
f 183/3/2 184/3/2 193/3/2
f 192/5/2 183/5/2 193/5/2
f 184/5/2 185/5/2 194/5/2
f 193/3/2 184/3/2 194/3/2
f 185/3/2 186/3/2 195/3/2
f 194/5/2 185/5/2 195/5/2
f 186/5/2 187/5/2 196/5/2
f 195/3/2 186/3/2 196/3/2
f 187/2/2 188/2/2 197/2/2
f 196/5/2 187/5/2 197/5/2
f 188/5/2 189/5/2 198/5/2
f 197/2/2 188/2/2 198/2/2
f 189/3/2 190/3/2 199/3/2
f 198/5/2 189/5/2 199/5/2
f 199/3/2 190/3/2 200/3/2
f 191/5/2 192/5/2 201/5/2
f 192/5/2 193/5/2 201/5/2
f 199/5/2 200/5/2 201/5/2
f 198/5/2 199/5/2 201/5/2
f 197/5/2 198/5/2 201/5/2
f 196/5/2 197/5/2 201/5/2
f 195/5/2 196/5/2 201/5/2
f 194/5/2 195/5/2 201/5/2
f 193/5/2 194/5/2 201/5/2
f 201/5/2 200/5/2 202/5/2
f 202/5/2 200/5/2 203/5/2
f 203/5/2 200/5/2 204/5/2
f 204/5/2 200/5/2 205/5/2
f 205/5/2 200/5/2 206/5/2
f 206/5/2 200/5/2 207/5/2
f 207/5/2 200/5/2 208/5/2
f 201/2/2 202/2/2 209/2/2
f 202/5/2 203/5/2 210/5/2
f 209/2/2 202/2/2 210/2/2
f 203/4/2 204/4/2 211/4/2
f 210/5/2 203/5/2 211/5/2
f 204/5/2 205/5/2 212/5/2
f 211/4/2 204/4/2 212/4/2
f 205/3/2 206/3/2 213/3/2
f 212/5/2 205/5/2 213/5/2
f 206/5/2 207/5/2 214/5/2
f 213/3/2 206/3/2 214/3/2
f 207/3/2 208/3/2 215/3/2
f 214/5/2 207/5/2 215/5/2
f 215/3/2 208/3/2 216/3/2
f 229/4/3 218/4/3 217/4/3
f 230/5/3 219/5/3 218/5/3
f 230/4/3 218/4/3 229/4/3
f 231/3/3 220/3/3 219/3/3
f 231/5/3 219/5/3 230/5/3
f 232/5/3 221/5/3 220/5/3
f 232/3/3 220/3/3 231/3/3
f 233/3/3 222/3/3 221/3/3
f 233/5/3 221/5/3 232/5/3
f 234/5/3 223/5/3 222/5/3
f 234/3/3 222/3/3 233/3/3
f 235/3/3 224/3/3 223/3/3
f 235/5/3 223/5/3 234/5/3
f 236/5/3 225/5/3 224/5/3
f 236/3/3 224/3/3 235/3/3
f 237/3/3 226/3/3 225/3/3
f 237/5/3 225/5/3 236/5/3
f 238/5/3 227/5/3 226/5/3
f 238/3/3 226/3/3 237/3/3
f 239/2/3 228/2/3 227/2/3
f 239/5/3 227/5/3 238/5/3
f 240/2/3 228/2/3 239/2/3
f 241/3/4 242/3/4 253/3/4
f 242/5/4 243/5/4 254/5/4
f 253/3/4 242/3/4 254/3/4
f 243/4/4 244/4/4 255/4/4
f 254/5/4 243/5/4 255/5/4
f 244/5/4 245/5/4 256/5/4
f 255/4/4 244/4/4 256/4/4
f 245/3/4 246/3/4 257/3/4
f 256/5/4 245/5/4 257/5/4
f 246/5/4 247/5/4 258/5/4
f 257/3/4 246/3/4 258/3/4
f 247/3/4 248/3/4 259/3/4
f 258/5/4 247/5/4 259/5/4
f 248/5/4 249/5/4 260/5/4
f 259/3/4 248/3/4 260/3/4
f 249/3/4 250/3/4 261/3/4
f 260/5/4 249/5/4 261/5/4
f 250/5/4 251/5/4 262/5/4
f 261/3/4 250/3/4 262/3/4
f 251/3/4 252/3/4 263/3/4
f 262/5/4 251/5/4 263/5/4
f 263/3/4 252/3/4 264/3/4
f 267/4/5 266/4/5 265/4/5
f 268/4/5 266/4/5 267/4/5
f 269/4/5 266/4/5 268/4/5
f 270/4/5 266/4/5 269/4/5
f 271/5/5 268/5/5 267/5/5
f 272/3/5 269/3/5 268/3/5
f 272/5/5 268/5/5 271/5/5
f 273/5/5 270/5/5 269/5/5
f 273/3/5 269/3/5 272/3/5
f 274/5/5 270/5/5 273/5/5
f 275/3/5 272/3/5 271/3/5
f 275/3/5 273/3/5 272/3/5
f 275/3/5 274/3/5 273/3/5
f 276/3/5 274/3/5 275/3/5
f 277/3/5 275/3/5 271/3/5
f 278/3/5 275/3/5 277/3/5
f 279/5/5 276/5/5 275/5/5
f 279/3/5 275/3/5 278/3/5
f 280/5/5 276/5/5 279/5/5
f 281/5/5 278/5/5 277/5/5
f 282/3/5 279/3/5 278/3/5
f 282/5/5 278/5/5 281/5/5
f 283/4/5 280/4/5 279/4/5
f 283/3/5 279/3/5 282/3/5
f 284/4/5 280/4/5 283/4/5
f 285/4/5 282/4/5 281/4/5
f 286/3/5 283/3/5 282/3/5
f 286/4/5 282/4/5 285/4/5
f 287/5/5 284/5/5 283/5/5
f 287/3/5 283/3/5 286/3/5
f 288/5/5 284/5/5 287/5/5
f 289/5/5 286/5/5 285/5/5
f 290/3/5 287/3/5 286/3/5
f 290/5/5 286/5/5 289/5/5
f 291/2/5 288/2/5 287/2/5
f 291/3/5 287/3/5 290/3/5
f 292/2/5 288/2/5 291/2/5
f 293/2/5 290/2/5 289/2/5
f 294/3/5 291/3/5 290/3/5
f 294/2/5 290/2/5 293/2/5
f 295/5/5 292/5/5 291/5/5
f 295/3/5 291/3/5 294/3/5
f 296/5/5 292/5/5 295/5/5
f 297/5/5 294/5/5 293/5/5
f 298/3/5 295/3/5 294/3/5
f 298/5/5 294/5/5 297/5/5
f 298/3/5 296/3/5 295/3/5
f 299/3/5 298/3/5 297/3/5
f 300/3/5 296/3/5 298/3/5
f 300/3/5 298/3/5 299/3/5
f 301/2/6 302/2/6 303/2/6
f 303/2/6 302/2/6 304/2/6
f 303/5/6 304/5/6 305/5/6
f 305/5/6 304/5/6 306/5/6
f 305/4/6 306/4/6 307/4/6
f 307/4/6 306/4/6 308/4/6
f 307/5/6 308/5/6 309/5/6
f 309/5/6 308/5/6 310/5/6
f 309/3/6 310/3/6 311/3/6
f 311/3/6 310/3/6 312/3/6
f 311/5/6 312/5/6 313/5/6
f 313/5/6 312/5/6 314/5/6
f 313/3/6 314/3/6 315/3/6
f 315/3/6 314/3/6 316/3/6
