# MagicaVoxel @ Ephtracy

# group
o 

# material
mtllib Parcel.mtl
usemtl palette

# normals
vn -1 0 0
vn 1 0 0
vn 0 0 1
vn 0 0 -1
vn 0 -1 0
vn 0 1 0

# texcoords
vt 0.369141 0.5
vt 0.537109 0.5
vt 0.974609 0.5
vt 0.994141 0.5

# verts
v -1.6 0 1.6
v -1.6 0 -1.1
v -1.6 0 -1.3
v -1.6 0 -1.6
v -1.6 0.1 1.5
v -1.6 0.1 1
v -1.6 0.1 0.8
v -1.6 0.1 0.5
v -1.6 0.2 1.5
v -1.6 0.2 1.3
v -1.6 0.2 1.2
v -1.6 0.2 1
v -1.6 0.2 0.8
v -1.6 0.2 0.7
v -1.6 0.2 0.6
v -1.6 0.2 0.5
v -1.6 0.3 0.8
v -1.6 0.3 0.7
v -1.6 0.3 0.6
v -1.6 0.3 0.5
v -1.6 0.4 1.5
v -1.6 0.4 1.4
v -1.6 0.4 1.1
v -1.6 0.4 1
v -1.6 0.5 1.5
v -1.6 0.5 1.4
v -1.6 0.5 1.3
v -1.6 0.5 1.2
v -1.6 0.5 1.1
v -1.6 0.5 1
v -1.6 0.6 1.4
v -1.6 0.6 1.1
v -1.6 0.6 0.8
v -1.6 0.6 0.5
v -1.6 3.2 1.6
v -1.6 3.2 -1.1
v -1.6 3.2 -1.3
v -1.6 3.2 -1.6
v 1.6 0 1.6
v 1.6 0 -1.1
v 1.6 0 -1.3
v 1.6 0 -1.6
v 1.6 3.2 1.6
v 1.6 3.2 -1.1
v 1.6 3.2 -1.3
v 1.6 3.2 -1.6
v -1.6 0 1.6
v -1.6 3.2 1.6
v -0.1 0 1.6
v -0.1 3.2 1.6
v 0.1 0 1.6
v 0.1 3.2 1.6
v 1.4 3.1 1.6
v 1.4 3.2 1.6
v 1.5 3.1 1.6
v 1.5 3.2 1.6
v 1.6 0 1.6
v 1.6 3.2 1.6
v -1.6 0 -1.6
v -1.6 3.2 -1.6
v -0.1 0 -1.6
v -0.1 3.2 -1.6
v 0.1 0 -1.6
v 0.1 3.2 -1.6
v 1.6 0 -1.6
v 1.6 3.2 -1.6
v -1.6 0 1.6
v -0.1 0 1.6
v 0.1 0 1.6
v 1.6 0 1.6
v -1.6 0 -1.1
v -0.1 0 -1.1
v 0.1 0 -1.1
v 1.6 0 -1.1
v -1.6 0 -1.3
v -0.1 0 -1.3
v 0.1 0 -1.3
v 1.6 0 -1.3
v -1.6 0 -1.6
v -0.1 0 -1.6
v 0.1 0 -1.6
v 1.6 0 -1.6
v -1.6 3.2 1.6
v -0.1 3.2 1.6
v 0.1 3.2 1.6
v 1.4 3.2 1.6
v 1.5 3.2 1.6
v 1.6 3.2 1.6
v 1.1 3.2 1.5
v 1.2 3.2 1.5
v 1.4 3.2 1.5
v 1.5 3.2 1.5
v 1.1 3.2 1.4
v 1.2 3.2 1.4
v 1.4 3.2 1.4
v 1.5 3.2 1.4
v 1.1 3.2 1.3
v 1.2 3.2 1.3
v 1.4 3.2 1.3
v 1.5 3.2 1.3
v 1.1 3.2 1.2
v 1.2 3.2 1.2
v 1.4 3.2 1.2
v 1.5 3.2 1.2
v 1.1 3.2 1.1
v 1.2 3.2 1.1
v 1.1 3.2 0.9
v 1.2 3.2 0.9
v 1.4 3.2 0.9
v 1.5 3.2 0.9
v -1.6 3.2 -1.1
v -0.1 3.2 -1.1
v 0.1 3.2 -1.1
v 1.6 3.2 -1.1
v -1.6 3.2 -1.3
v -0.1 3.2 -1.3
v 0.1 3.2 -1.3
v 1.6 3.2 -1.3
v -1.6 3.2 -1.6
v -0.1 3.2 -1.6
v 0.1 3.2 -1.6
v 1.6 3.2 -1.6

# faces
f 5/1/1 2/1/1 1/1/1
f 6/1/1 2/1/1 5/1/1
f 7/1/1 2/1/1 6/1/1
f 8/1/1 2/1/1 7/1/1
f 9/1/1 5/1/1 1/1/1
f 9/4/1 6/4/1 5/4/1
f 10/4/1 6/4/1 9/4/1
f 11/4/1 6/4/1 10/4/1
f 12/1/1 7/1/1 6/1/1
f 12/4/1 6/4/1 11/4/1
f 13/4/1 8/4/1 7/4/1
f 13/1/1 7/1/1 12/1/1
f 14/4/1 8/4/1 13/4/1
f 15/4/1 8/4/1 14/4/1
f 16/1/1 2/1/1 8/1/1
f 16/4/1 8/4/1 15/4/1
f 17/1/1 12/1/1 11/1/1
f 17/1/1 13/1/1 12/1/1
f 17/1/1 14/1/1 13/1/1
f 18/4/1 15/4/1 14/4/1
f 18/1/1 14/1/1 17/1/1
f 19/1/1 16/1/1 15/1/1
f 19/4/1 15/4/1 18/4/1
f 20/1/1 2/1/1 16/1/1
f 20/1/1 16/1/1 19/1/1
f 21/1/1 9/1/1 1/1/1
f 21/1/1 10/1/1 9/1/1
f 22/1/1 10/1/1 21/1/1
f 23/1/1 17/1/1 11/1/1
f 24/1/1 17/1/1 23/1/1
f 25/1/1 21/1/1 1/1/1
f 25/4/1 22/4/1 21/4/1
f 26/1/1 10/1/1 22/1/1
f 26/4/1 22/4/1 25/4/1
f 27/4/1 11/4/1 10/4/1
f 27/1/1 10/1/1 26/1/1
f 28/1/1 23/1/1 11/1/1
f 28/4/1 11/4/1 27/4/1
f 29/4/1 24/4/1 23/4/1
f 29/1/1 23/1/1 28/1/1
f 30/1/1 17/1/1 24/1/1
f 30/4/1 24/4/1 29/4/1
f 31/1/1 26/1/1 25/1/1
f 31/4/1 29/4/1 28/4/1
f 31/4/1 28/4/1 27/4/1
f 31/4/1 27/4/1 26/4/1
f 32/1/1 30/1/1 29/1/1
f 32/4/1 29/4/1 31/4/1
f 33/4/1 19/4/1 18/4/1
f 33/1/1 30/1/1 32/1/1
f 33/1/1 17/1/1 30/1/1
f 33/4/1 20/4/1 19/4/1
f 33/4/1 18/4/1 17/4/1
f 34/1/1 2/1/1 20/1/1
f 34/4/1 20/4/1 33/4/1
f 35/1/1 25/1/1 1/1/1
f 35/1/1 32/1/1 31/1/1
f 35/1/1 34/1/1 33/1/1
f 35/1/1 33/1/1 32/1/1
f 35/1/1 31/1/1 25/1/1
f 36/2/1 3/2/1 2/2/1
f 36/1/1 34/1/1 35/1/1
f 36/1/1 2/1/1 34/1/1
f 37/1/1 4/1/1 3/1/1
f 37/2/1 3/2/1 36/2/1
f 38/1/1 4/1/1 37/1/1
f 39/1/2 40/1/2 43/1/2
f 40/2/2 41/2/2 44/2/2
f 43/1/2 40/1/2 44/1/2
f 41/1/2 42/1/2 45/1/2
f 44/2/2 41/2/2 45/2/2
f 45/1/2 42/1/2 46/1/2
f 49/1/3 48/1/3 47/1/3
f 50/1/3 48/1/3 49/1/3
f 51/2/3 50/2/3 49/2/3
f 52/2/3 50/2/3 51/2/3
f 53/1/3 52/1/3 51/1/3
f 54/1/3 52/1/3 53/1/3
f 55/1/3 53/1/3 51/1/3
f 55/3/3 54/3/3 53/3/3
f 56/3/3 54/3/3 55/3/3
f 57/1/3 55/1/3 51/1/3
f 57/1/3 56/1/3 55/1/3
f 58/1/3 56/1/3 57/1/3
f 59/1/4 60/1/4 61/1/4
f 61/1/4 60/1/4 62/1/4
f 61/2/4 62/2/4 63/2/4
f 63/2/4 62/2/4 64/2/4
f 63/1/4 64/1/4 65/1/4
f 65/1/4 64/1/4 66/1/4
f 71/1/5 68/1/5 67/1/5
f 72/2/5 69/2/5 68/2/5
f 72/1/5 68/1/5 71/1/5
f 73/1/5 70/1/5 69/1/5
f 73/2/5 69/2/5 72/2/5
f 74/1/5 70/1/5 73/1/5
f 75/2/5 72/2/5 71/2/5
f 75/2/5 73/2/5 72/2/5
f 75/2/5 74/2/5 73/2/5
f 76/2/5 74/2/5 75/2/5
f 77/2/5 74/2/5 76/2/5
f 78/2/5 74/2/5 77/2/5
f 79/1/5 76/1/5 75/1/5
f 80/2/5 77/2/5 76/2/5
f 80/1/5 76/1/5 79/1/5
f 81/1/5 78/1/5 77/1/5
f 81/2/5 77/2/5 80/2/5
f 82/1/5 78/1/5 81/1/5
f 85/1/6 86/1/6 89/1/6
f 89/1/6 86/1/6 90/1/6
f 86/3/6 87/3/6 91/3/6
f 90/1/6 86/1/6 91/1/6
f 87/1/6 88/1/6 92/1/6
f 91/3/6 87/3/6 92/3/6
f 89/3/6 90/3/6 93/3/6
f 85/1/6 89/1/6 93/1/6
f 90/1/6 91/1/6 94/1/6
f 93/3/6 90/3/6 94/3/6
f 91/1/6 92/1/6 94/1/6
f 94/1/6 92/1/6 95/1/6
f 92/1/6 88/1/6 96/1/6
f 95/1/6 92/1/6 96/1/6
f 85/1/6 93/1/6 97/1/6
f 94/1/6 95/1/6 97/1/6
f 93/1/6 94/1/6 97/1/6
f 97/1/6 95/1/6 98/1/6
f 95/3/6 96/3/6 99/3/6
f 98/1/6 95/1/6 99/1/6
f 96/1/6 88/1/6 100/1/6
f 99/3/6 96/3/6 100/3/6
f 97/3/6 98/3/6 101/3/6
f 85/1/6 97/1/6 101/1/6
f 98/1/6 99/1/6 102/1/6
f 101/3/6 98/3/6 102/3/6
f 99/1/6 100/1/6 102/1/6
f 102/1/6 100/1/6 103/1/6
f 100/1/6 88/1/6 104/1/6
f 103/1/6 100/1/6 104/1/6
f 85/1/6 101/1/6 105/1/6
f 102/1/6 103/1/6 105/1/6
f 101/1/6 102/1/6 105/1/6
f 105/1/6 103/1/6 106/1/6
f 85/1/6 105/1/6 107/1/6
f 105/3/6 106/3/6 107/3/6
f 106/1/6 103/1/6 108/1/6
f 107/3/6 106/3/6 108/3/6
f 103/3/6 104/3/6 109/3/6
f 108/1/6 103/1/6 109/1/6
f 104/1/6 88/1/6 110/1/6
f 109/3/6 104/3/6 110/3/6
f 83/1/6 84/1/6 111/1/6
f 84/2/6 85/2/6 112/2/6
f 111/1/6 84/1/6 112/1/6
f 108/1/6 109/1/6 113/1/6
f 112/2/6 85/2/6 113/2/6
f 107/1/6 108/1/6 113/1/6
f 109/1/6 110/1/6 113/1/6
f 85/1/6 107/1/6 113/1/6
f 110/1/6 88/1/6 114/1/6
f 113/1/6 110/1/6 114/1/6
f 112/2/6 113/2/6 115/2/6
f 111/2/6 112/2/6 115/2/6
f 113/2/6 114/2/6 115/2/6
f 115/2/6 114/2/6 116/2/6
f 116/2/6 114/2/6 117/2/6
f 117/2/6 114/2/6 118/2/6
f 115/1/6 116/1/6 119/1/6
f 116/2/6 117/2/6 120/2/6
f 119/1/6 116/1/6 120/1/6
f 117/1/6 118/1/6 121/1/6
f 120/2/6 117/2/6 121/2/6
f 121/1/6 118/1/6 122/1/6
